<svg version="1" xmlns="http://www.w3.org/2000/svg" xmlns:xlink="http://www.w3.org/1999/xlink" width="173.174" height="200" viewBox="0 0 173.174 200"><path fill="#E14E25" d="M283.626 135.368v-90c0-4.142 4.298-7.5 9.6-7.5h88.799c5.303 0 9.601 3.358 9.601 7.5v90"/><path fill="#1D1D1D" d="M382.025 181.368h-88.799c-6.121 0-11.1-4.038-11.1-9v-127c0-4.962 4.979-9 11.1-9h88.799c6.121 0 11.101 4.038 11.101 9v127c0 4.962-4.98 9-11.101 9zm-88.799-142c-4.466 0-8.1 2.691-8.1 6v127c0 3.309 3.634 6 8.1 6h88.799c4.467 0 8.101-2.691 8.101-6v-127c0-3.309-3.634-6-8.101-6h-88.799z"/><defs><path id="a" d="M37.486 74.162l5.123-.517 7.506-21.771s5.976-17.235 24.474-10.684c16.917 5.981 19.303-.809 27.234-1.969 10.925-1.6 17.232 2.995 19.311 10.926 2.056 7.928 7.115 23.302 7.115 23.302l6.729.712c.278-3.065 5.552-50.967-49.208-45.525-1.017-.137-4.45-.675-9.048-.675-14.591 0-40.942 5.412-39.236 46.201"/></defs><clipPath id="b"><use xlink:href="#a" overflow="visible"/></clipPath><path clip-path="url(#b)" fill="#232323" d="M37.486 78.118a3.962 3.962 0 0 1-3.951-3.792c-.704-16.854 3.142-29.778 11.429-38.421 9.428-9.833 22.476-11.901 31.757-11.901 4.315 0 7.709.456 9.128.65a88.45 88.45 0 0 1 8.233-.401c14.979 0 26.536 4.361 34.333 12.943 11.824 13.017 11.025 31.776 10.505 37.218-.099 1.049-.624 2.078-1.439 2.746-.72.592-1.632.952-2.556.952-.126 0-.242-.002-.366-.024l-6.723-.698a3.962 3.962 0 0 1-3.341-2.697c-.204-.635-5.12-15.589-7.191-23.552-1.458-5.572-5.173-8.283-11.36-8.283a24.17 24.17 0 0 0-3.547.278c-1.803.261-3.312.941-5.059 1.723-2.83 1.272-6.037 2.716-10.955 2.716-3.764 0-8.053-.874-13.113-2.659-2.36-.833-4.583-1.26-6.611-1.26-9.279 0-12.671 9.142-12.814 9.53l-7.5 21.742a3.96 3.96 0 0 1-3.34 2.646l-5.116.519a3.433 3.433 0 0 1-.403.025"/><path fill="#232323" d="M86.542 186.067c-18.488 0-32.967-9.266-32.967-21.088 0-11.816 14.479-21.076 32.967-21.076 18.481 0 32.96 9.26 32.96 21.076 0 11.822-14.479 21.088-32.96 21.088"/><path fill="#232323" d="M86.542 178.165c-18.488 0-32.967-9.262-32.967-21.078 0-11.828 14.479-21.088 32.967-21.088 18.481 0 32.96 9.26 32.96 21.088 0 11.816-14.479 21.078-32.96 21.078M42.925 64.642c-.416 0-.835-.071-1.242-.207C18.23 56.661 12.127 28.26 14.194 15.494c1.145-7.133 4.703-8.197 6.72-8.197 4.383 0 6.799 5.12 7.591 6.812 8.523 18.04 28.16 18.805 28.352 18.813a3.96 3.96 0 0 1 3.348 2.023 3.95 3.95 0 0 1-.035 3.908L46.342 62.667a3.944 3.944 0 0 1-3.417 1.975m-7.769 43.714c-7.818 0-14.177-7.683-14.177-17.123 0-9.437 6.359-17.112 14.177-17.112 7.821 0 14.185 7.675 14.185 17.112 0 9.441-6.363 17.123-14.185 17.123m103.42 0c-7.819 0-14.183-7.683-14.183-17.123 0-9.437 6.364-17.112 14.183-17.112s14.181 7.675 14.181 17.112c-.001 9.441-6.362 17.123-14.181 17.123m-7.703-43.714a3.938 3.938 0 0 1-3.415-1.976l-13.831-23.813a3.955 3.955 0 0 1 3.314-5.931c.796-.033 19.894-.898 28.352-18.813.79-1.692 3.216-6.812 7.593-6.812 2.014 0 5.572 1.064 6.718 8.189 2.063 12.773-4.037 41.175-27.487 48.949a3.934 3.934 0 0 1-1.244.207"/><path fill="#232323" d="M85.86 165.872c-32.666 0-58.257-27.721-58.257-63.111 0-.349.049-.694.14-1.028l13.769-50.991c3.441-15.331 20.317-24.587 45.091-24.587 25.05 0 42.962 9.418 45.696 24.004l.415 1.574 11.31 50.161c.067.291.103.577.103.867 0 35.39-25.598 63.111-58.267 63.111"/><path fill="#232323" d="M37.586 78.118a3.968 3.968 0 0 1-3.956-3.792c-.7-16.854 3.143-29.778 11.427-38.421 9.431-9.833 22.478-11.901 31.757-11.901 4.317 0 7.705.455 9.129.65a88.435 88.435 0 0 1 8.237-.401c14.968 0 26.516 4.352 34.317 12.932 11.49 12.625 11.189 30.231 10.523 37.207-.101 1.057-.621 2.092-1.442 2.758-.722.595-1.63.962-2.563.962-.117 0-.235-.002-.361-.024l-6.725-.698a3.955 3.955 0 0 1-3.334-2.697c-.21-.635-5.126-15.589-7.2-23.546-1.453-5.578-5.168-8.289-11.357-8.289-1.105 0-2.3.093-3.545.278-1.803.261-3.316.941-5.059 1.723-2.827 1.272-6.034 2.716-10.955 2.716-3.764 0-8.049-.874-13.11-2.659-2.364-.833-4.587-1.26-6.619-1.26-9.395 0-12.772 9.42-12.8 9.513l-7.51 21.759a3.948 3.948 0 0 1-3.339 2.646l-5.119.519a3.329 3.329 0 0 1-.396.025m4.365 78.914a3.948 3.948 0 0 1-3.352-6.041c7.294-11.707 5.195-17.459 3.061-18.857-1.689-.939-2.333-2.904-1.68-4.727 7.131-19.847 27.099-20.421 29.353-20.421l.278.002a3.955 3.955 0 0 1 3.765 3.166c4.956 24.35-17.351 41.098-29.834 46.553a4.094 4.094 0 0 1-1.591.325m89.499 0a3.996 3.996 0 0 1-1.583-.326c-12.49-5.455-34.796-22.203-29.841-46.553a3.959 3.959 0 0 1 3.765-3.166l.276-.002c2.256 0 22.226.574 29.357 20.421a3.951 3.951 0 0 1-1.794 4.793c-.137.098-5.949 4.154 3.17 18.791a3.941 3.941 0 0 1-.356 4.674 3.95 3.95 0 0 1-2.994 1.368"/><path fill="#232323" d="M55.457 134.569c-34.895 0-43.383-34.549-43.458-34.899a3.934 3.934 0 0 1 1.923-4.351 3.895 3.895 0 0 1 1.924-.5c1.025 0 2.035.391 2.794 1.157 2.716 2.711 7.457 4.085 14.081 4.085h.008c16.231 0 37.354-8.353 39.708-9.314l.196-.076a3.991 3.991 0 0 1 3.553.187 3.996 3.996 0 0 1 1.975 2.961l3.811 31.937a3.963 3.963 0 0 1-2.591 4.191c-8.531 3.066-16.579 4.621-23.916 4.621h-.008zm62.258 0c-7.342 0-15.39-1.555-23.921-4.621a3.957 3.957 0 0 1-2.592-4.191l3.816-31.937a3.956 3.956 0 0 1 3.926-3.485c.556 0 1.112.116 1.628.354 2.516 1.02 23.644 9.373 39.874 9.373 6.628 0 11.373-1.374 14.082-4.085a3.952 3.952 0 0 1 2.798-1.157c.657 0 1.321.159 1.924.5a3.953 3.953 0 0 1 1.928 4.351c-.08.349-8.565 34.898-43.463 34.898m-30.241 58.135c-6.19 0-11.229-5.031-11.229-11.221s5.039-11.23 11.229-11.23 11.224 5.041 11.224 11.23-5.034 11.221-11.224 11.221M42.609 73.645l7.506-21.771s5.976-17.235 24.474-10.684c16.917 5.981 19.303-.809 27.234-1.969 10.925-1.6 17.232 2.995 19.311 10.926 2.056 7.928 7.115 23.302 7.115 23.302l6.727.712c.28-3.065 5.554-50.967-49.206-45.525-4.241-.573-50.528-8.117-48.284 45.525l5.123-.516z"/><defs><path id="c" d="M37.486 74.162l5.123-.517 7.506-21.771s5.976-17.235 24.474-10.684c16.917 5.981 19.303-.809 27.234-1.969 10.925-1.6 17.232 2.995 19.311 10.926 2.056 7.928 7.115 23.302 7.115 23.302l6.729.712c.278-3.065 5.552-50.967-49.208-45.525-1.017-.137-4.45-.675-9.048-.675-14.591 0-40.942 5.412-39.236 46.201"/></defs><clipPath id="d"><use xlink:href="#c" overflow="visible"/></clipPath><path clip-path="url(#d)" fill="#232323" d="M37.486 78.118a3.962 3.962 0 0 1-3.951-3.792c-.704-16.854 3.142-29.778 11.429-38.421 9.428-9.833 22.476-11.901 31.757-11.901 4.315 0 7.709.456 9.128.65a88.45 88.45 0 0 1 8.233-.401c14.979 0 26.536 4.361 34.333 12.943 11.824 13.017 11.025 31.776 10.505 37.218-.099 1.049-.624 2.078-1.439 2.746-.72.592-1.632.952-2.556.952-.126 0-.242-.002-.366-.024l-6.723-.698a3.962 3.962 0 0 1-3.341-2.697c-.204-.635-5.12-15.589-7.191-23.552-1.458-5.572-5.173-8.283-11.36-8.283a24.17 24.17 0 0 0-3.547.278c-1.803.261-3.312.941-5.059 1.723-2.83 1.272-6.037 2.716-10.955 2.716-3.764 0-8.053-.874-13.113-2.659-2.36-.833-4.583-1.26-6.611-1.26-9.279 0-12.671 9.142-12.814 9.53l-7.5 21.742a3.96 3.96 0 0 1-3.34 2.646l-5.116.519a3.433 3.433 0 0 1-.403.025"/><path fill="#F1C61C" d="M115.549 164.979c0 9.463-12.994 17.137-29.012 17.137-16.017 0-29.011-7.674-29.011-17.137 0-9.453 12.994-17.127 29.011-17.127 16.018 0 29.012 7.674 29.012 17.127"/><path fill="#232323" d="M86.537 183.493c-7.991 0-15.524-1.848-21.213-5.207-5.917-3.498-9.177-8.221-9.177-13.307 0-5.082 3.259-9.803 9.177-13.297 5.69-3.359 13.223-5.211 21.213-5.211s15.524 1.852 21.213 5.211c5.917 3.494 9.178 8.215 9.178 13.297 0 5.086-3.261 9.809-9.178 13.307-5.689 3.359-13.223 5.207-21.213 5.207zm0-34.264c-15.237 0-27.633 7.068-27.633 15.75 0 8.688 12.396 15.754 27.633 15.754 15.238 0 27.633-7.066 27.633-15.754 0-8.682-12.396-15.75-27.633-15.75z"/><path fill="#D2962A" d="M114.948 159.973c0 10.373-12.761 18.783-28.5 18.783-15.742 0-28.499-8.41-28.499-18.783 0-10.377 12.757-18.781 28.499-18.781 15.739 0 28.5 8.404 28.5 18.781"/><path fill="#D79A4F" d="M115.549 157.086c0 9.449-12.994 17.121-29.012 17.121-16.017 0-29.011-7.672-29.011-17.121 0-9.467 12.994-17.133 29.011-17.133 16.018.001 29.012 7.667 29.012 17.133"/><path fill="#232323" d="M86.537 175.584c-7.99 0-15.523-1.848-21.213-5.205-5.917-3.494-9.177-8.217-9.177-13.293 0-5.086 3.259-9.813 9.177-13.305 5.688-3.359 13.222-5.207 21.213-5.207 7.99 0 15.524 1.848 21.213 5.207 5.917 3.492 9.178 8.219 9.178 13.305 0 5.076-3.261 9.799-9.178 13.293-5.689 3.358-13.223 5.205-21.213 5.205zm0-34.253c-15.237 0-27.633 7.068-27.633 15.756 0 8.678 12.396 15.74 27.633 15.74 15.238 0 27.633-7.063 27.633-15.74 0-8.688-12.396-15.756-27.633-15.756z"/><path fill="#B7804E" d="M114.937 150.309c0 10.611-12.854 19.213-28.703 19.213-15.853 0-28.708-8.602-28.708-19.213 0-10.602 12.855-19.199 28.708-19.199 15.849 0 28.703 8.598 28.703 19.199"/><path fill="#FFF" d="M56.748 36.873s-22.159-.621-31.812-21.079C15.281-4.66 10.589 49.968 42.925 60.688l13.823-23.815z"/><path fill="#232323" d="M42.925 62.068c-.145 0-.29-.022-.434-.071-21.997-7.292-27.701-34.053-25.757-46.095.804-4.983 2.719-6.03 4.182-6.03 1.85 0 3.573 1.745 5.266 5.333 9.165 19.42 30.392 20.283 30.604 20.29.485.015.928.284 1.165.708.235.426.232.944-.012 1.363L44.117 61.381a1.38 1.38 0 0 1-1.192.687zM20.917 12.631c-.113 0-.972.69-1.46 3.711-.84 5.2-.048 14.326 3.611 22.993 2.891 6.844 8.557 15.701 19.237 19.674L54.47 38.052c-2.305-.294-6.16-1.014-10.523-2.767-6.384-2.567-15.081-7.931-20.257-18.903-1.447-3.063-2.514-3.751-2.773-3.751z"/><path fill="#C2CFCE" d="M37.444 56.829S18.443 46.128 19.247 17.342c0 0 .626-4.309 1.721-4.66 0 0-3.981 29.305 17.28 40.908l-.804 3.239z"/><path fill="#D79A4F" d="M45.388 91.234c0 7.283-4.582 13.166-10.226 13.166-5.652 0-10.226-5.883-10.226-13.166 0-7.274 4.574-13.162 10.226-13.162 5.644 0 10.226 5.888 10.226 13.162"/><path fill="#232323" d="M35.162 105.777c-6.4 0-11.605-6.523-11.605-14.543 0-8.019 5.206-14.54 11.605-14.54 6.398 0 11.605 6.521 11.605 14.54 0 8.02-5.206 14.543-11.605 14.543zm0-26.325c-4.878 0-8.847 5.285-8.847 11.782 0 6.499 3.969 11.787 8.847 11.787s8.847-5.288 8.847-11.787c0-6.497-3.969-11.782-8.847-11.782z"/><path fill="#D79A4F" d="M128.346 91.234c0 7.283 4.579 13.166 10.229 13.166s10.223-5.883 10.223-13.166c0-7.274-4.572-13.162-10.223-13.162s-10.229 5.888-10.229 13.162"/><path fill="#232323" d="M138.576 105.777c-6.4 0-11.606-6.523-11.606-14.543 0-8.019 5.207-14.54 11.606-14.54 6.397 0 11.602 6.521 11.602 14.54 0 8.02-5.205 14.543-11.602 14.543zm0-26.325c-4.879 0-8.851 5.285-8.851 11.782 0 6.499 3.971 11.787 8.851 11.787 4.877 0 8.844-5.288 8.844-11.787-.001-6.497-3.967-11.782-8.844-11.782z"/><path fill="#B7804E" d="M142.715 91.144c0 4.355-2.3 7.877-5.148 7.877-2.834 0-5.139-3.522-5.139-7.877 0-4.36 2.305-7.887 5.139-7.887 2.848 0 5.148 3.527 5.148 7.887m-112.698 0c0 4.355 2.3 7.877 5.145 7.877 2.84 0 5.136-3.522 5.136-7.877 0-4.36-2.296-7.887-5.136-7.887-2.845 0-5.145 3.527-5.145 7.887"/><path fill="#FFF" d="M117.049 36.873s22.166-.621 31.819-21.079c9.648-20.454 14.342 34.174-17.995 44.895l-13.824-23.816z"/><path fill="#232323" d="M130.873 62.068c-.482 0-.939-.253-1.193-.687l-13.824-23.816a1.375 1.375 0 0 1-.011-1.363 1.376 1.376 0 0 1 1.164-.708c.213-.006 21.45-.87 30.612-20.29 1.695-3.588 3.415-5.333 5.265-5.333 1.462 0 3.377 1.045 4.18 6.027 1.944 12.042-3.76 38.805-25.76 46.097a1.3 1.3 0 0 1-.433.073zm-11.546-24.016l12.165 20.957c10.683-3.974 16.349-12.833 19.239-19.677 3.662-8.667 4.451-17.793 3.612-22.993-.486-3.018-1.345-3.708-1.458-3.708-.26 0-1.325.688-2.771 3.751-5.175 10.972-13.875 16.335-20.262 18.903-4.363 1.754-8.22 2.473-10.525 2.767z"/><path fill="#D79A4F" d="M128.897 52.753l-.462-1.724c-2.298-12.867-19.335-20.926-41.832-20.926-22.494 0-38.175 7.884-41.276 21.676l-13.769 50.982c0 33.437 24.314 59.15 54.302 59.15 29.991 0 54.307-25.713 54.307-59.15l-11.27-50.008z"/><path fill="#232323" d="M85.86 163.889c-15.139 0-29.291-6.279-39.847-17.67-10.597-11.439-16.432-26.873-16.432-43.458 0-.174.022-.348.067-.516l13.758-50.943c3.292-14.513 19.436-23.176 43.196-23.176 24.095 0 41.258 8.816 43.763 22.469l.442 1.644a.749.749 0 0 1 .018.079l11.27 50.009c.031.141.047.287.047.434 0 16.585-5.834 32.019-16.432 43.458-10.556 11.391-24.707 17.67-39.85 17.67zm-52.324-60.868c.124 31.937 23.063 56.914 52.324 56.914 29.278 0 52.227-25 52.33-56.955l-11.212-49.751-.453-1.684a2.014 2.014 0 0 1-.036-.168c-2.063-11.541-18.091-19.295-39.886-19.295-21.803 0-36.513 7.525-39.347 20.131l-.021.081-13.699 50.727z"/><path fill="#1D1D1D" d="M42.702 73.645l7.509-21.771s5.977-17.235 24.476-10.684c16.914 5.981 19.302-.809 27.236-1.969 10.925-1.6 17.234 2.995 19.302 10.926 2.068 7.928 7.122 23.302 7.122 23.302l6.731.712c.273-3.065 5.55-50.967-49.217-45.525-4.231-.573-50.52-8.117-48.278 45.525l5.119-.516z"/><path fill="#232323" d="M135.078 75.54c-.049 0-.099 0-.146-.006l-6.729-.711a1.383 1.383 0 0 1-1.166-.942c-.049-.155-5.092-15.507-7.144-23.385-1.745-6.68-6.532-10.212-13.849-10.212a27.11 27.11 0 0 0-3.919.303c-2.162.315-3.902 1.099-5.747 1.926-2.594 1.166-5.534 2.489-9.9 2.489-3.466 0-7.473-.822-12.25-2.511-2.637-.933-5.151-1.406-7.473-1.406-11.167 0-15.081 10.784-15.242 11.243l-7.507 21.766c-.175.509-.63.868-1.165.922l-5.118.518a1.383 1.383 0 0 1-1.518-1.314c-.674-16.122 2.931-28.413 10.715-36.527 8.804-9.181 21.118-11.109 29.898-11.109 4.327 0 7.684.471 8.947.649l.125.017a85.781 85.781 0 0 1 8.279-.421c14.207 0 25.109 4.061 32.404 12.068 10.79 11.846 10.512 28.586 9.891 35.234l-.014.156a1.372 1.372 0 0 1-1.372 1.253zm-5.698-3.368l4.438.47c.401-6.06.31-21.358-9.283-31.89-6.75-7.409-16.966-11.167-30.366-11.167-2.592 0-5.341.144-8.171.424a1.435 1.435 0 0 1-.321-.004l-.296-.042a60.217 60.217 0 0 0-8.563-.622c-8.244 0-19.776 1.78-27.908 10.259-7.012 7.31-10.372 18.423-9.999 33.042l2.774-.281 7.221-20.937c.047-.133 4.696-13.098 17.848-13.098 2.637 0 5.46.527 8.393 1.565 4.477 1.583 8.182 2.352 11.33 2.352 3.776 0 6.202-1.09 8.77-2.245 1.936-.87 3.938-1.771 6.476-2.142 1.5-.22 2.953-.331 4.321-.331 8.586 0 14.452 4.358 16.518 12.273 1.752 6.736 5.735 19.047 6.818 22.374z"/><path fill="#FFF" d="M130.673 130.202s-5.946 14.646-23.333 23.467l-1.63 2.74s18.618-6.982 27.229-27.094l-2.266.887zM86.466 69.229l50.652 5.108s-9.96 26.485-38.102 20.488l-12.55-25.596z"/><path fill="#232323" d="M107.046 97.688c-2.715 0-5.554-.312-8.442-.929a1.978 1.978 0 0 1-1.363-1.061L84.691 70.1a1.978 1.978 0 0 1 .151-2 1.98 1.98 0 0 1 1.822-.837l50.651 5.107a1.974 1.974 0 0 1 1.65 2.665c-.085.232-2.195 5.75-7.148 11.307-6.617 7.422-15.185 11.346-24.771 11.346zm-6.684-4.607c2.292.434 4.536.652 6.684.652 16.116 0 24.323-12.383 27.104-17.707l-44.343-4.474 10.555 21.529z"/><path fill="#FFF" d="M86.466 69.229l-50.653 5.108s9.964 26.485 38.097 20.488l12.556-25.596z"/><path fill="#232323" d="M65.885 97.688h-.004c-9.586 0-18.15-3.924-24.77-11.349-4.952-5.554-7.062-11.073-7.149-11.304a1.986 1.986 0 0 1 .17-1.74c.324-.52.871-.863 1.482-.926l50.653-5.107a1.983 1.983 0 0 1 1.822.837c.41.59.467 1.355.151 2L75.685 95.698a1.968 1.968 0 0 1-1.363 1.061c-2.887.617-5.725.929-8.437.929zM38.777 76.026a38.162 38.162 0 0 0 5.376 7.781c5.917 6.586 13.228 9.925 21.729 9.926h.003c2.145 0 4.387-.218 6.678-.652l10.56-21.528-44.346 4.473z"/><path fill="#FFF" d="M43.704 128.747s9.954 5.559-1.753 24.334c0 0 33.172-14.492 27.548-42.137 0 0-19.209-.537-25.795 17.803"/><path fill="#232323" d="M41.952 154.461a1.381 1.381 0 0 1-1.171-2.112c5.672-9.094 5.943-14.736 5.172-17.863-.804-3.264-2.846-4.492-2.933-4.543a1.397 1.397 0 0 1-.613-1.664c6.533-18.191 24.854-18.717 26.923-18.717.138 0 .209.002.209.002.639.02 1.185.477 1.312 1.104 2.4 11.799-1.775 23.111-12.075 32.719-7.675 7.158-15.925 10.807-16.272 10.959-.18.076-.367.115-.552.115zm3.407-26.195c1.002.875 2.507 2.59 3.239 5.434 1.129 4.387.074 9.758-3.137 16.006 3.053-1.746 7.396-4.559 11.487-8.385 9.323-8.721 13.159-18.461 11.41-28.971-4.004.219-17.447 1.998-22.999 15.916z"/><path fill="#FFF" d="M129.705 128.747s-9.96 5.559 1.745 24.334c0 0-33.178-14.492-27.55-42.137 0 0 19.208-.537 25.805 17.803"/><path fill="#232323" d="M131.447 154.461c-.186 0-.375-.039-.552-.115-.348-.152-8.599-3.801-16.272-10.959-10.301-9.607-14.477-20.92-12.073-32.719a1.38 1.38 0 0 1 1.312-1.104s.072-.002.208-.002c2.067 0 20.388.525 26.931 18.717a1.378 1.378 0 0 1-.624 1.67c-.076.045-2.121 1.273-2.926 4.539-.769 3.117-.504 8.721 5.092 17.744a1.379 1.379 0 0 1-1.081 2.229h-.015zm-26.404-42.111c-3.278 19.811 14.58 32.561 22.888 37.34-3.204-6.238-4.254-11.605-3.124-15.988.731-2.846 2.238-4.561 3.243-5.436-5.561-13.914-19.002-15.697-23.007-15.916z"/><path fill="#E66C6C" d="M112.206 120.926c0 41.609-19.248 43.994-26.221 43.994-7.85 0-26.226-2.385-26.226-43.994h52.447z"/><path fill="#232323" d="M85.985 166.522c-2.619 0-10.589 0-17.21-6.885-7.044-7.328-10.617-20.35-10.617-38.711a1.6 1.6 0 0 1 1.601-1.6h52.446c.884 0 1.599.715 1.599 1.6 0 39.672-17.429 45.596-27.819 45.596zM61.37 122.528c.312 27.068 8.589 40.791 24.615 40.791 5.829 0 10.735-1.986 14.581-5.91 6.456-6.586 9.826-18.316 10.028-34.881H61.37z"/><path fill="#1D1D1D" d="M85.188 68.761s-34.682-9.028-41.501 4.498l41.501-4.498z"/><path fill="#232323" d="M43.686 74.638a1.379 1.379 0 0 1-1.231-1.997c2.745-5.448 9.613-8.209 20.414-8.209 11.033 0 22.197 2.873 22.667 2.996a1.378 1.378 0 0 1-.199 2.705l-41.501 4.5c-.05.003-.1.005-.15.005zm19.183-7.449c-7.805 0-13.244 1.465-16.229 4.363l29.509-3.2c-3.886-.617-8.632-1.163-13.28-1.163z"/><path fill="#1D1D1D" d="M87.743 69.113s34.684-9.019 41.5 4.507l-41.5-4.507z"/><path fill="#232323" d="M129.243 74.998c-.049 0-.099-.002-.15-.008l-41.499-4.505a1.38 1.38 0 0 1-.199-2.705c.47-.123 11.628-2.99 22.658-2.99 10.711 0 17.557 2.715 20.349 8.07a1.378 1.378 0 0 1-1.15 2.138h-.009zm-32.462-6.29l29.507 3.203c-2.987-2.897-8.427-4.364-16.234-4.364-4.649.001-9.392.545-13.273 1.161z"/><path fill="#1D1D1D" d="M74.229 94.289l-.314.131c-3.944 1.602-44.736 17.69-58.07 4.353 0 0 10.742 45.966 62.197 27.451l-3.813-31.935z"/><path fill="#232323" d="M55.457 131.997h-.001c-17.191 0-27.421-8.965-32.977-16.482-5.981-8.097-7.897-16.092-7.976-16.427a1.38 1.38 0 0 1 2.318-1.291c3.215 3.216 8.568 4.846 15.907 4.846 16.796 0 38.275-8.527 40.669-9.5l.313-.13a1.375 1.375 0 0 1 1.888 1.113l3.814 31.933a1.38 1.38 0 0 1-.902 1.461c-8.258 2.971-16.012 4.477-23.053 4.477zm-36.978-29.571c1.14 2.984 3.12 7.276 6.276 11.528 7.527 10.143 17.857 15.285 30.7 15.285h.001c6.43 0 13.518-1.326 21.084-3.947l-3.469-29.055c-5.606 2.175-24.831 9.165-40.345 9.165-5.866-.001-10.637-1-14.247-2.976z"/><path fill="#1D1D1D" d="M98.944 94.289l.305.131c3.956 1.602 44.744 17.69 58.077 4.353 0 0-10.743 45.966-62.196 27.451l3.814-31.935z"/><path fill="#232323" d="M117.717 131.997c-7.041 0-14.799-1.506-23.056-4.477a1.379 1.379 0 0 1-.901-1.461l3.816-31.933a1.379 1.379 0 0 1 1.89-1.111s.114.045.334.142c2.368.958 23.906 9.487 40.643 9.487 7.339 0 12.689-1.63 15.905-4.846a1.38 1.38 0 0 1 2.319 1.291c-.079.335-1.996 8.331-7.976 16.427-5.554 7.518-15.784 16.481-32.974 16.481zm-21.087-6.705c7.565 2.621 14.656 3.947 21.087 3.947 12.842 0 23.17-5.141 30.698-15.285 3.155-4.25 5.135-8.543 6.274-11.528-3.608 1.977-8.377 2.976-14.246 2.976-15.468 0-34.743-6.995-40.342-9.162l-3.471 29.052z"/><path fill="#D79A4F" d="M102.604 102.286l.022-.007-16.161-33.05-16.249 32.486c-.041.081-.041.081 0 0-1.128 3.198-1.779 5.385-1.779 8.177 0 9.955 8.065 18.223 18.028 18.223 9.954 0 18.031-7.971 18.031-17.928.001-2.869-.695-5.483-1.892-7.901"/><path fill="#232323" d="M86.466 129.717c-10.823 0-19.628-8.893-19.628-19.824 0-3.083.738-5.483 1.791-8.481.028-.124.073-.247.133-.364l.03-.06 16.243-32.476a1.602 1.602 0 0 1 1.432-.883h.008a1.6 1.6 0 0 1 1.43.896l16.16 33.053c.039.078.07.159.097.243 1.285 2.686 1.938 5.499 1.938 8.367-.002 10.768-8.81 19.529-19.634 19.529zm-14.773-27.374c-1.144 3.251-1.655 5.128-1.655 7.55 0 9.166 7.369 16.621 16.427 16.621 9.059 0 16.43-7.324 16.43-16.326 0-2.493-.565-4.845-1.725-7.192a1.474 1.474 0 0 1-.099-.248L86.449 72.84l-14.756 29.503z"/><path fill="#C8605F" d="M61.5 131.612s9.14-1.148 16.543-3.9c0 0 7.535 4.258 17.088-.115 0 0 8.568 3.201 15.234 3.883l-.428 4.34s-9.311-3.367-14.806-4.756c0 0-7.686 4.248-17.088 0l-16.021 4.756-.522-4.208z"/><path fill="#E0B180" d="M80.2 111.167c0 1.615-1.042 2.932-2.327 2.932-1.28 0-2.328-1.316-2.328-2.932 0-1.621 1.047-2.927 2.328-2.927 1.285-.001 2.327 1.305 2.327 2.927"/><path fill="#232323" d="M21.304 29.959c-.983 0-2.037-.11-3.161-.361a1.378 1.378 0 1 1 .599-2.691c7.192 1.599 9.979-3.781 10.006-3.835a1.377 1.377 0 1 1 2.465 1.234c-1.083 2.167-4.398 5.653-9.909 5.653z"/><path fill="#CC3531" d="M90.719 56.829a4.401 4.401 0 0 1-4.397 4.403 4.403 4.403 0 0 1-4.397-4.403c0-2.423 1.974-4.383 4.397-4.383a4.39 4.39 0 0 1 4.397 4.383"/><path fill="#232323" d="M86.322 62.61c-3.184 0-5.775-2.594-5.775-5.782 0-3.178 2.591-5.762 5.775-5.762 3.187 0 5.776 2.584 5.776 5.762a5.784 5.784 0 0 1-5.776 5.782zm0-8.786a3.016 3.016 0 0 0-3.018 3.005 3.024 3.024 0 0 0 3.018 3.023 3.026 3.026 0 0 0 3.021-3.023 3.017 3.017 0 0 0-3.021-3.005z"/><path fill="#181819" d="M71.33 97.031l-4.63 1.375s-11.519 15.077 3.851 28.704l4.365-1.18s-14.792-9.076-3.586-28.899m30.07-.234l5.292 1.753s11.062 14.826-4.339 28.433l-4.377-1.297s14.633-9.066 3.424-28.889"/><path fill="#B7804E" d="M38.993 82.782l-1.162 4.22S47.092 98.968 61.54 97.4c.001 0-12.296-.259-22.547-14.618m95.14-.31l.884 3.829s-7.339 12.683-23.229 11.12c.001 0 12.087-.586 22.345-14.949"/><path fill="#C2CFCE" d="M73.231 91.727s-21.139 4.57-32.537-15.912l-2.863.276s7.745 23.52 34.173 18.198l1.227-2.562zm26.465-.114s21.132 4.62 32.146-15.857l2.442.333s-7.22 22.92-33.651 17.603l-.937-2.079zm16.362 40.395s.121 7.854 11.714 17.588c0 0-6.817-2.771-15.279-12.398l.686-5.375 2.879.185zm-60.094.024s1.14 7.854-10.448 17.602c0 0 7.122-3.695 14.243-10.979l-.926-6.799-2.869.176z"/><path fill="#FFF" d="M134.174 82.383l4.59 20.266-1.937-.158-4.043-18.238zm-47.708-9.682l14.53 29.948s7.402 11.701-5.492 21.121c0 0 7.954-8.992 3.306-20.189-4.642-11.201-12.344-30.88-12.344-30.88m38.548-5.057l-5.512-18.53s-2.009-6.833-9.108-8.362c0 0 4.776 1.402 7.557 10.312a1033.614 1033.614 0 0 1 4.713 15.574l2.35 1.006zm29.303 35.005s-6.086 20.208-25.061 24.947c0 0 17.134-8.861 25.061-24.947m-46.354 28.459s-3.014 27.113-19.542 32.023c0 0 19.018.775 21.944-31.652l-2.402-.371zm28.823-51.42s8.396-2.704 10.638 10.078c0 0 1.359 8.921-5.305 12.209 0 0 6.568-5.466 2.547-14.945 0 .001-1.527-6.295-7.88-7.342"/><path fill="#C2CFCE" d="M135.535 57.189S156.9 45.956 154.317 14.87c0 0-.144-2.522-1.605-2.184 0 0 3.283 29.648-17.979 41.256l.802 3.247z"/><path fill="#232323" d="M151.642 31.343c-5.514 0-8.826-3.492-9.907-5.66a1.378 1.378 0 0 1 2.465-1.237c.124.239 2.893 5.423 10.01 3.842a1.379 1.379 0 1 1 .597 2.691 14.465 14.465 0 0 1-3.165.364z"/><path fill="#1D1D1D" d="M67.47 81.451a2.97 2.97 0 0 1-2.968 2.971 2.97 2.97 0 0 1-2.961-2.971 2.957 2.957 0 0 1 2.961-2.962 2.96 2.96 0 0 1 2.968 2.962m42.792 0a2.967 2.967 0 0 1-2.969 2.971 2.964 2.964 0 0 1-2.955-2.971 2.956 2.956 0 0 1 2.955-2.962 2.958 2.958 0 0 1 2.969 2.962"/><path fill="#FFF" d="M110.394 31.966s24.845 4.909 23.338 40.569l-1.973-.159s1.987-30.67-21.365-40.41"/><path fill="#E0B180" d="M110.874 44.333c1.332 1.273 1.577 3.15.57 4.199-1.009 1.055-2.897.867-4.22-.401-1.318-1.267-1.574-3.145-.569-4.197 1.012-1.05 2.903-.868 4.219.399m4.439 6.859c.249 1.129-.285 2.193-1.175 2.386-.893.195-1.816-.563-2.059-1.688-.247-1.128.287-2.191 1.18-2.386.893-.195 1.817.558 2.054 1.688"/><path fill="#E58183" d="M89.52 145.766c.065 6.225-1.552 11.289-3.621 11.32-2.073.018-3.795-5.01-3.863-11.24-.066-6.223 1.55-11.279 3.609-11.309 2.065-.015 3.799 5.001 3.875 11.229"/><path fill="#FFF" d="M85.774 141.739v8.002"/><path fill="#232323" d="M85.774 151.34a1.6 1.6 0 0 1-1.601-1.6v-8.002a1.6 1.6 0 1 1 3.201 0v8.002a1.6 1.6 0 0 1-1.6 1.6z"/><path fill="#F1C61C" d="M94.747 181.483a7.273 7.273 0 0 1-14.547 0 7.274 7.274 0 1 1 14.547 0"/><path fill="#232323" d="M87.474 190.133c-4.771 0-8.652-3.879-8.652-8.65s3.881-8.656 8.652-8.656 8.654 3.885 8.654 8.656-3.884 8.65-8.654 8.65zm0-14.549c-3.25 0-5.895 2.646-5.895 5.898s2.645 5.893 5.895 5.893c3.25 0 5.896-2.641 5.896-5.893s-2.646-5.898-5.896-5.898z"/><path fill="#232323" d="M89.403 184.752a.88.88 0 0 1-.783-.477l-2.766-5.404a.878.878 0 0 1 1.563-.797l2.766 5.398a.88.88 0 0 1-.381 1.186.902.902 0 0 1-.399.094z"/><path fill="#232323" d="M85.54 184.801a.877.877 0 0 1-.621-1.498l2.479-2.475a.879.879 0 0 1 1.241 1.242l-2.479 2.475a.88.88 0 0 1-.62.256z"/><path fill="#1D1D1D" d="M282.761 134.331H392.49v3H282.761z"/><path d="M303.177 147.83h2.413v8.147h5.51v-8.147h2.412v20.261H311.1v-8.984h-5.51v8.984h-2.413V147.83zm20.105 14.776h-4.575l-1.061 5.484h-2.454l4.43-20.261h2.828l4.43 20.261h-2.537l-1.061-5.484zm-.541-2.818l-.478-2.479c-.437-2.137-.832-4.461-1.227-6.691h-.083c-.375 2.262-.77 4.555-1.207 6.691l-.478 2.479h3.473zm6.299 3.253c.977 1.363 2.287 2.293 3.535 2.293 1.539 0 2.371-1.023 2.371-2.603 0-1.673-.874-2.199-2.101-2.975l-1.872-1.208c-1.331-.836-2.745-2.416-2.745-5.39 0-3.223 1.913-5.701 4.575-5.701 1.581 0 3.12.991 4.18 2.571l-1.227 2.293c-.873-1.085-1.788-1.735-2.953-1.735-1.289 0-2.142.898-2.142 2.386 0 1.579 1.04 2.169 2.163 2.85l1.851 1.146c1.602 1.022 2.745 2.54 2.745 5.483 0 3.283-1.83 6.01-4.887 6.01-1.83 0-3.618-1.084-4.908-2.974l1.415-2.446zm10.79-15.211h2.412v11.647c0 4.399 1.102 5.856 2.744 5.856 1.664 0 2.828-1.457 2.828-5.856V147.83h2.309v11.369c0 6.661-1.975 9.263-5.137 9.263-3.139 0-5.156-2.602-5.156-9.263V147.83zm21.104 20.26l-2.932-7.931h-2.08v7.931h-2.412v-20.26h4.596c2.828 0 4.991 1.487 4.991 6.01 0 3.098-1.081 4.956-2.704 5.793l3.244 8.458h-2.703zm-5.012-10.781h1.935c1.851 0 2.87-1.177 2.87-3.47 0-2.323-1.02-3.129-2.87-3.129h-1.935v6.599zm16.155 5.297h-4.575l-1.061 5.484h-2.453l4.43-20.261h2.827l4.429 20.261h-2.536l-1.061-5.484zm-.541-2.818l-.478-2.479c-.438-2.137-.832-4.461-1.227-6.691h-.084c-.375 2.262-.77 4.555-1.207 6.691l-.478 2.479h3.474z" fill="#010101"/></svg>
